<svg class="svg-icon" style="width: 1em; height: 1em;vertical-align: middle;fill: currentColor;overflow: hidden;" viewBox="0 0 1024 1024" version="1.1" xmlns="http://www.w3.org/2000/svg"><path d="M993.792 245.248c-16.384-16.384-39.424-23.552-60.928-20.48H92.672c-7.68-1.024-15.36-1.024-23.04 0H66.56l0.512 0.512c-13.312 2.56-26.112 9.216-36.864 19.456-28.16 28.16-28.16 73.216 0 101.376l420.864 420.864c2.56 4.096 5.632 7.68 9.216 11.264 14.336 14.336 32.768 21.504 51.712 20.992 18.432 0 37.376-6.656 51.712-20.992 3.584-3.584 6.656-7.168 9.216-11.264l420.864-420.864c13.824-13.824 20.992-32.256 20.992-50.688s-6.656-35.84-20.992-50.176z" fill="#646464" /></svg>