<?xml version="1.0" encoding="utf-8"?>
<!-- Svg Vector Icons : http://www.onlinewebfonts.com/icon -->
<!DOCTYPE svg PUBLIC "-//W3C//DTD SVG 1.1//EN" "http://www.w3.org/Graphics/SVG/1.1/DTD/svg11.dtd">
<svg version="1.1" xmlns="http://www.w3.org/2000/svg" xmlns:xlink="http://www.w3.org/1999/xlink" x="0px" y="0px" viewBox="0 0 256 256" enable-background="new 0 0 256 256" xml:space="preserve">
<metadata> Svg Vector Icons : http://www.onlinewebfonts.com/icon </metadata>
<g><g><path fill="#000000" d="M222.5,116.5c7.9,7.7,15.6,15.3,23.5,23.1c-39.3,38.6-78.6,77-118,115.7c-39.4-38.6-78.6-77-118-115.7c7.8-7.7,15.6-15.3,23.5-23.1c31.5,30.9,62.9,61.6,94.5,92.6C159.5,178.2,190.9,147.4,222.5,116.5z"/><path fill="#000000" d="M222.5,0.8c7.9,7.7,15.6,15.3,23.5,23.1c-39.3,38.6-78.6,77.1-118,115.7c-39.4-38.6-78.6-77-118-115.7c7.8-7.7,15.6-15.3,23.5-23.1C65,31.6,96.4,62.4,128,93.4C159.5,62.5,190.9,31.7,222.5,0.8z"/></g></g>
</svg>